<?xml version="1.0" encoding="UTF-8"?>
<svg width="120px" height="120px" viewBox="0 0 120 120" version="1.1" xmlns="http://www.w3.org/2000/svg" xmlns:xlink="http://www.w3.org/1999/xlink">
    <!-- Generator: Sketch 44.1 (41455) - http://www.bohemiancoding.com/sketch -->
    <title>icon-srv-5</title>
    <desc>Created with Sketch.</desc>
    <defs></defs>
    <g id="main-pages" stroke="none" stroke-width="1" fill="none" fill-rule="evenodd">
        <g id="icon-srv-5">
            <g id="Page-1" transform="translate(8.000000, 12.000000)">
                <path d="M93.7481,55.5322 C94.1351,53.1342 94.3891,50.6962 94.3891,48.1912 C94.3891,22.6792 73.7031,2.0002 48.1931,2.0002 C22.6821,2.0002 2.0001,22.6792 2.0001,48.1912 C2.0001,73.7002 22.6821,94.3822 48.1931,94.3822 C64.1681,94.3822 78.2461,86.2732 86.5411,73.9502" id="Fill-1" fill="#FFFFFF"></path>
                <path d="M48.1934,96.3818 C21.6194,96.3818 0.0004,74.7638 0.0004,48.1918 C0.0004,21.6188 21.6194,-0.0002 48.1934,-0.0002 C74.7684,-0.0002 96.3884,21.6188 96.3884,48.1918 C96.3884,50.5658 96.1714,53.0708 95.7224,55.8508 L91.7734,55.2138 C92.1874,52.6478 92.3884,50.3498 92.3884,48.1918 C92.3884,23.8238 72.5624,3.9998 48.1934,3.9998 C23.8254,3.9998 4.0004,23.8238 4.0004,48.1918 C4.0004,72.5588 23.8254,92.3818 48.1934,92.3818 C62.9264,92.3818 76.6424,85.0738 84.8814,72.8338 L88.2004,75.0678 C79.2164,88.4138 64.2604,96.3818 48.1934,96.3818" id="Fill-3" fill="#282D33"></path>
                <path d="M86.5167,54.3662 C86.8417,52.3482 87.0557,50.2982 87.0557,48.1912 C87.0557,26.7292 69.6547,9.3332 48.1937,9.3332 C26.7327,9.3332 9.3337,26.7292 9.3337,48.1912 C9.3337,69.6492 26.7327,87.0482 48.1937,87.0482 C61.6327,87.0482 73.4767,80.2262 80.4537,69.8602" id="Fill-5" fill="#00BC9B"></path>
                <path d="M80.6182,61.7607 C67.9432,56.8847 54.0862,54.9137 40.5502,56.0607 L40.2112,52.0747 C54.3502,50.8767 68.8192,52.9367 82.0542,58.0287 L80.6182,61.7607 Z" id="Fill-7" fill="#282D33"></path>
                <path d="M5.9717,66.2255 L4.0987,62.6915 C7.5067,60.8845 11.0637,59.2725 14.6707,57.8985 L16.0947,61.6365 C12.6407,62.9535 9.2347,64.4965 5.9717,66.2255" id="Fill-9" fill="#282D33"></path>
                <path d="M63.9786,92.0351 L59.9786,92.0211 C60.0226,78.8181 57.3776,65.9841 52.1206,53.8741 L55.7906,52.2811 C61.2686,64.9011 64.0246,78.2761 63.9786,92.0351" id="Fill-11" fill="#282D33"></path>
                <path d="M49.6915,48.7089 C42.4925,34.5209 31.7505,22.2729 18.6245,13.2889 L20.8835,9.9879 C34.5615,19.3519 45.7565,32.1139 53.2575,46.8989 L49.6915,48.7089 Z" id="Fill-13" fill="#282D33"></path>
                <path d="M51.3106,24.041 C44.1216,18.681 37.7396,12.321 32.3426,5.138 L35.5396,2.735 C40.7076,9.613 46.8186,15.703 53.7016,20.834 L51.3106,24.041 Z" id="Fill-15" fill="#282D33"></path>
                <path d="M93.5606,41.6904 C86.5606,40.6304 79.6546,38.7684 73.0336,36.1554 L74.5016,32.4344 C80.8426,34.9384 87.4566,36.7214 94.1586,37.7354 L93.5606,41.6904 Z" id="Fill-17" fill="#282D33"></path>
                <path d="M74.6934,29.7373 C74.6934,35.2083 70.2524,39.6463 64.7854,39.6463 C59.3124,39.6463 54.8774,35.2083 54.8774,29.7373 C54.8774,24.2663 59.3124,19.8253 64.7854,19.8253 C70.2524,19.8253 74.6934,24.2663 74.6934,29.7373" id="Fill-19" fill="#B7BEC0"></path>
                <path d="M64.7852,21.8252 C60.4252,21.8252 56.8772,25.3752 56.8772,29.7372 C56.8772,34.0982 60.4252,37.6462 64.7852,37.6462 C69.1452,37.6462 72.6932,34.0982 72.6932,29.7372 C72.6932,25.3752 69.1452,21.8252 64.7852,21.8252 M64.7852,41.6462 C58.2192,41.6462 52.8772,36.3042 52.8772,29.7372 C52.8772,23.1692 58.2192,17.8252 64.7852,17.8252 C71.3512,17.8252 76.6932,23.1692 76.6932,29.7372 C76.6932,36.3042 71.3512,41.6462 64.7852,41.6462" id="Fill-21" fill="#282D33"></path>
                <path d="M100.1778,64.7773 C100.1778,70.2503 95.7418,74.6883 90.2698,74.6883 C84.7968,74.6883 80.3618,70.2503 80.3618,64.7773 C80.3618,59.3043 84.7968,54.8673 90.2698,54.8673 C95.7418,54.8673 100.1778,59.3043 100.1778,64.7773" id="Fill-23" fill="#B7BEC0"></path>
                <path d="M90.2696,56.8672 C85.9096,56.8672 82.3616,60.4162 82.3616,64.7772 C82.3616,69.1392 85.9096,72.6882 90.2696,72.6882 C94.6296,72.6882 98.1776,69.1392 98.1776,64.7772 C98.1776,60.4162 94.6296,56.8672 90.2696,56.8672 M90.2696,76.6882 C83.7036,76.6882 78.3616,71.3462 78.3616,64.7772 C78.3616,58.2102 83.7036,52.8672 90.2696,52.8672 C96.8356,52.8672 102.1776,58.2102 102.1776,64.7772 C102.1776,71.3462 96.8356,76.6882 90.2696,76.6882" id="Fill-25" fill="#282D33"></path>
                <path d="M35.9356,57.8759 C35.9356,63.3489 31.4986,67.7849 26.0256,67.7849 C20.5546,67.7849 16.1176,63.3489 16.1176,57.8759 C16.1176,52.4059 20.5546,47.9659 26.0256,47.9659 C31.4986,47.9659 35.9356,52.4059 35.9356,57.8759" id="Fill-27" fill="#B7BEC0"></path>
                <path d="M26.0255,49.9658 C21.6655,49.9658 18.1175,53.5148 18.1175,57.8758 C18.1175,62.2368 21.6655,65.7848 26.0255,65.7848 C30.3865,65.7848 33.9355,62.2368 33.9355,57.8758 C33.9355,53.5148 30.3865,49.9658 26.0255,49.9658 M26.0255,69.7848 C19.4595,69.7848 14.1175,64.4438 14.1175,57.8758 C14.1175,51.3088 19.4595,45.9658 26.0255,45.9658 C32.5925,45.9658 37.9355,51.3088 37.9355,57.8758 C37.9355,64.4438 32.5925,69.7848 26.0255,69.7848" id="Fill-29" fill="#282D33"></path>
            </g>
        </g>
    </g>
</svg>