<?xml version="1.0" encoding="UTF-8"?>
<svg width="120px" height="120px" viewBox="0 0 120 120" version="1.1" xmlns="http://www.w3.org/2000/svg" xmlns:xlink="http://www.w3.org/1999/xlink">
    <!-- Generator: Sketch 44.1 (41455) - http://www.bohemiancoding.com/sketch -->
    <title>icon-srv-7</title>
    <desc>Created with Sketch.</desc>
    <defs>
        <polygon id="path-1" points="0.6542 0.665 50.9942 0.665 50.9942 51.0036 0.6542 51.0036 0.6542 0.665"></polygon>
        <polygon id="path-3" points="0 103.335 101.453 103.335 101.453 1 0 1"></polygon>
    </defs>
    <g id="main-pages" stroke="none" stroke-width="1" fill="none" fill-rule="evenodd">
        <g id="icon-srv-7">
            <g id="Page-1" transform="translate(9.000000, 8.000000)">
                <path d="M23.5683,60.1998 C12.7783,60.1998 4.0003,68.9778 4.0003,79.7678 C4.0003,90.5568 12.7783,99.3348 23.5683,99.3348 C34.3573,99.3348 43.1353,90.5568 43.1353,79.7678 C43.1353,68.9778 34.3573,60.1998 23.5683,60.1998 Z M23.5683,103.3348 C10.5723,103.3348 0.0003,92.7628 0.0003,79.7678 C0.0003,66.7718 10.5723,56.1998 23.5683,56.1998 C36.5633,56.1998 47.1353,66.7718 47.1353,79.7678 C47.1353,92.7628 36.5633,103.3348 23.5683,103.3348 Z" id="Fill-1" fill="#282D33"></path>
                <path d="M11.6064,88.0845 C9.9054,85.6625 8.9934,82.7935 8.9934,79.7685 C8.9934,71.7315 15.5314,65.1925 23.5684,65.1925 C31.6054,65.1925 38.1424,71.7315 38.1424,79.7685 C38.1424,82.7935 37.2304,85.6625 35.5294,88.0835 C34.3854,85.2015 31.5694,83.1595 28.2864,83.1595 L18.8504,83.1595 C15.5664,83.1595 12.7514,85.2015 11.6064,88.0845" id="Fill-3" fill="#00BC9B"></path>
                <path d="M68.7305,26.1695 C68.7305,36.0585 60.7125,44.0745 50.8245,44.0745 C40.9365,44.0745 32.9185,36.0585 32.9185,26.1695 C32.9185,16.2795 40.9365,8.2635 50.8245,8.2635 C60.7125,8.2635 68.7305,16.2795 68.7305,26.1695" id="Fill-5" fill="#B7BEC0"></path>
                <g id="Group-9" transform="translate(25.000000, 0.335000)">
                    <mask id="mask-2" fill="white">
                        <use xlink:href="#path-1"></use>
                    </mask>
                    <g id="Clip-8"></g>
                    <path d="M25.8242,4.6646 C14.1512,4.6646 4.6542,14.1616 4.6542,25.8346 C4.6542,37.5076 14.1512,47.0036 25.8242,47.0036 C37.4972,47.0036 46.9942,37.5076 46.9942,25.8346 C46.9942,14.1616 37.4972,4.6646 25.8242,4.6646 M25.8242,51.0036 C11.9452,51.0036 0.6542,39.7126 0.6542,25.8346 C0.6542,11.9556 11.9452,0.6646 25.8242,0.6646 C39.7032,0.6646 50.9942,11.9556 50.9942,25.8346 C50.9942,39.7126 39.7032,51.0036 25.8242,51.0036" id="Fill-7" fill="#282D33" mask="url(#mask-2)"></path>
                </g>
                <path d="M57.1142,24.0718 C57.1142,27.5458 54.2982,30.3618 50.8242,30.3618 C47.3502,30.3618 44.5352,27.5458 44.5352,24.0718 C44.5352,20.5988 47.3502,17.7828 50.8242,17.7828 C54.2982,17.7828 57.1142,20.5988 57.1142,24.0718" id="Fill-10" fill="#FFFFFF"></path>
                <path d="M50.8242,19.7828 C48.4592,19.7828 46.5352,21.7058 46.5352,24.0718 C46.5352,26.4378 48.4592,28.3618 50.8242,28.3618 C53.1892,28.3618 55.1142,26.4378 55.1142,24.0718 C55.1142,21.7058 53.1892,19.7828 50.8242,19.7828 M50.8242,32.3618 C46.2532,32.3618 42.5352,28.6428 42.5352,24.0718 C42.5352,19.5018 46.2532,15.7828 50.8242,15.7828 C55.3952,15.7828 59.1142,19.5018 59.1142,24.0718 C59.1142,28.6428 55.3952,32.3618 50.8242,32.3618" id="Fill-12" fill="#282D33"></path>
                <path d="M55.543,31.0611 L46.107,31.0611 C42.634,31.0611 39.816,33.8761 39.816,37.3511 L39.816,37.8621 C42.693,40.5721 46.56,42.2431 50.824,42.2431 C55.09,42.2431 58.955,40.5721 61.832,37.8621 L61.832,37.3511 C61.832,33.8761 59.016,31.0611 55.543,31.0611" id="Fill-14" fill="#FFFFFF"></path>
                <path d="M41.832,36.9781 C44.363,39.0901 47.524,40.2431 50.824,40.2431 C54.125,40.2431 57.286,39.0901 59.815,36.9791 C59.626,34.7871 57.782,33.0611 55.543,33.0611 L46.107,33.0611 C43.867,33.0611 42.021,34.7871 41.832,36.9781 M50.824,44.2431 C46.214,44.2431 41.817,42.4951 38.444,39.3181 L37.816,38.7261 L37.816,37.3511 C37.816,32.7801 41.535,29.0611 46.107,29.0611 L55.543,29.0611 C60.112,29.0611 63.832,32.7801 63.832,37.3511 L63.832,38.7261 L63.203,39.3181 C59.832,42.4931 55.436,44.2431 50.824,44.2431" id="Fill-16" fill="#282D33"></path>
                <path d="M29.8584,77.6714 C29.8584,81.1454 27.0424,83.9614 23.5684,83.9614 C20.0944,83.9614 17.2784,81.1454 17.2784,77.6714 C17.2784,74.1964 20.0944,71.3824 23.5684,71.3824 C27.0424,71.3824 29.8584,74.1964 29.8584,77.6714" id="Fill-18" fill="#FFFFFF"></path>
                <path d="M23.5683,73.3824 C21.2033,73.3824 19.2783,75.3054 19.2783,77.6714 C19.2783,80.0364 21.2033,81.9614 23.5683,81.9614 C25.9343,81.9614 27.8583,80.0364 27.8583,77.6714 C27.8583,75.3054 25.9343,73.3824 23.5683,73.3824 M23.5683,85.9614 C18.9973,85.9614 15.2783,82.2424 15.2783,77.6714 C15.2783,73.1014 18.9973,69.3824 23.5683,69.3824 C28.1393,69.3824 31.8583,73.1014 31.8583,77.6714 C31.8583,82.2424 28.1393,85.9614 23.5683,85.9614" id="Fill-20" fill="#282D33"></path>
                <path d="M36.5762,98.2056 L32.5762,98.2056 L32.5762,90.9496 C32.5762,88.5836 30.6502,86.6596 28.2862,86.6596 L18.8502,86.6596 C16.4842,86.6596 14.5602,88.5836 14.5602,90.9496 L14.5602,98.2056 L10.5602,98.2056 L10.5602,90.9496 C10.5602,86.3786 14.2792,82.6596 18.8502,82.6596 L28.2862,82.6596 C32.8562,82.6596 36.5762,86.3786 36.5762,90.9496 L36.5762,98.2056 Z" id="Fill-22" fill="#282D33"></path>
                <path d="M77.8857,60.1998 C67.0957,60.1998 58.3177,68.9778 58.3177,79.7678 C58.3177,90.5568 67.0957,99.3348 77.8857,99.3348 C88.6747,99.3348 97.4527,90.5568 97.4527,79.7678 C97.4527,68.9778 88.6747,60.1998 77.8857,60.1998 M77.8857,103.3348 C64.8907,103.3348 54.3177,92.7628 54.3177,79.7678 C54.3177,66.7718 64.8907,56.1998 77.8857,56.1998 C90.8807,56.1998 101.4527,66.7718 101.4527,79.7678 C101.4527,92.7628 90.8807,103.3348 77.8857,103.3348" id="Fill-24" fill="#282D33"></path>
                <path d="M65.9238,88.0845 C64.2228,85.6625 63.3098,82.7935 63.3098,79.7685 C63.3098,71.7315 69.8488,65.1925 77.8858,65.1925 C85.9228,65.1925 92.4598,71.7315 92.4598,79.7685 C92.4598,82.7935 91.5468,85.6615 89.8478,88.0835 C88.7028,85.2015 85.8878,83.1595 82.6038,83.1595 L73.1678,83.1595 C69.8838,83.1595 67.0678,85.2015 65.9238,88.0845" id="Fill-26" fill="#00BC9B"></path>
                <path d="M84.1758,77.6714 C84.1758,81.1454 81.3598,83.9614 77.8858,83.9614 C74.4118,83.9614 71.5968,81.1454 71.5968,77.6714 C71.5968,74.1964 74.4118,71.3824 77.8858,71.3824 C81.3598,71.3824 84.1758,74.1964 84.1758,77.6714" id="Fill-28" fill="#FFFFFF"></path>
                <path d="M77.8857,73.3824 C75.5207,73.3824 73.5967,75.3054 73.5967,77.6714 C73.5967,80.0364 75.5207,81.9614 77.8857,81.9614 C80.2507,81.9614 82.1757,80.0364 82.1757,77.6714 C82.1757,75.3054 80.2507,73.3824 77.8857,73.3824 M77.8857,85.9614 C73.3147,85.9614 69.5967,82.2424 69.5967,77.6714 C69.5967,73.1014 73.3147,69.3824 77.8857,69.3824 C82.4567,69.3824 86.1757,73.1014 86.1757,77.6714 C86.1757,82.2424 82.4567,85.9614 77.8857,85.9614" id="Fill-30" fill="#282D33"></path>
                <path d="M90.8926,98.2056 L86.8926,98.2056 L86.8926,90.9496 C86.8926,88.5836 84.9686,86.6596 82.6036,86.6596 L73.1676,86.6596 C70.8026,86.6596 68.8776,88.5836 68.8776,90.9496 L68.8776,98.2056 L64.8776,98.2056 L64.8776,90.9496 C64.8776,86.3786 68.5966,82.6596 73.1676,82.6596 L82.6036,82.6596 C87.1736,82.6596 90.8926,86.3786 90.8926,90.9496 L90.8926,98.2056 Z" id="Fill-32" fill="#282D33"></path>
                <path d="M50.8242,41.9947 L50.8242,61.3597" id="Fill-34" fill="#FFFFFF"></path>
                <mask id="mask-4" fill="white">
                    <use xlink:href="#path-3"></use>
                </mask>
                <g id="Clip-37"></g>
                <polygon id="Fill-36" fill="#282D33" mask="url(#mask-4)" points="48.824 61.36 52.824 61.36 52.824 41.995 48.824 41.995"></polygon>
                <path d="M39.3486,65.9097 L50.4536,59.4997" id="Fill-38" fill="#FFFFFF" mask="url(#mask-4)"></path>
                <polygon id="Fill-39" fill="#282D33" mask="url(#mask-4)" points="40.3486 67.6431 38.3486 64.1791 49.4526 57.7671 51.4536 61.2311"></polygon>
                <path d="M62.3008,65.9097 L51.1938,59.4997" id="Fill-40" fill="#FFFFFF" mask="url(#mask-4)"></path>
                <polygon id="Fill-41" fill="#282D33" mask="url(#mask-4)" points="61.3008 67.6431 50.1938 61.2311 52.1938 57.7671 63.3008 64.1791"></polygon>
            </g>
        </g>
    </g>
</svg>