<?xml version="1.0" encoding="UTF-8"?>
<svg width="120px" height="120px" viewBox="0 0 120 120" version="1.1" xmlns="http://www.w3.org/2000/svg" xmlns:xlink="http://www.w3.org/1999/xlink">
    <!-- Generator: Sketch 44.1 (41455) - http://www.bohemiancoding.com/sketch -->
    <title>icon-srv-6</title>
    <desc>Created with Sketch.</desc>
    <defs></defs>
    <g id="main-pages" stroke="none" stroke-width="1" fill="none" fill-rule="evenodd">
        <g id="icon-srv-6">
            <g id="Page-1" transform="translate(15.000000, 9.000000)">
                <polygon id="Fill-1" fill="#FFFFFF" points="6.7168 29.0732 44.8338 7.0652 82.9488 29.0732 82.9488 73.0842 44.8338 95.0912 6.7168 73.0842"></polygon>
                <path d="M8.7168,71.9297 L44.8338,92.7817 L80.9488,71.9297 L80.9488,30.2287 L44.8338,9.3747 L8.7168,30.2287 L8.7168,71.9297 Z M44.8338,97.4007 L4.7168,74.2397 L4.7168,27.9187 L44.8338,4.7557 L84.9488,27.9187 L84.9488,74.2397 L44.8338,97.4007 Z" id="Fill-2" fill="#282D33"></path>
                <path d="M87.2813,75.585 L2.3853,26.571" id="Fill-3" fill="#FFFFFF"></path>
                <polygon id="Fill-4" fill="#282D33" points="86.2813 77.3174 1.3853 28.3024 3.3853 24.8394 88.2813 73.8534"></polygon>
                <path d="M2.3848,75.585 L87.2808,26.571" id="Fill-5" fill="#FFFFFF"></path>
                <polygon id="Fill-6" fill="#282D33" points="3.3848 77.3174 1.3848 73.8534 86.2808 24.8394 88.2808 28.3024"></polygon>
                <path d="M44.8344,99.5403 L44.8344,3.2063 L44.8344,99.5403 Z" id="Fill-7" fill="#FFFFFF"></path>
                <polygon id="Fill-8" fill="#282D33" points="42.834 99.54 46.834 99.54 46.834 3.206 42.834 3.206"></polygon>
                <g id="Group-45">
                    <path d="M12.668,29.332 C12.668,32.279 10.279,34.666 7.334,34.666 C4.388,34.666 2,32.279 2,29.332 C2,26.387 4.388,24 7.334,24 C10.279,24 12.668,26.387 12.668,29.332" id="Fill-9" fill="#B7BEC0"></path>
                    <path d="M7.334,26 C5.496,26 4,27.495 4,29.332 C4,31.17 5.496,32.666 7.334,32.666 C9.172,32.666 10.668,31.17 10.668,29.332 C10.668,27.495 9.172,26 7.334,26 M7.334,36.666 C3.289,36.666 0,33.376 0,29.332 C0,25.289 3.289,22 7.334,22 C11.377,22 14.668,25.289 14.668,29.332 C14.668,33.376 11.377,36.666 7.334,36.666" id="Fill-11" fill="#B7BEC0"></path>
                    <path d="M87.668,29.332 C87.668,32.279 85.279,34.666 82.334,34.666 C79.388,34.666 77,32.279 77,29.332 C77,26.387 79.388,24 82.334,24 C85.279,24 87.668,26.387 87.668,29.332" id="Fill-13" fill="#00BC9B"></path>
                    <path d="M82.334,26 C80.496,26 79,27.495 79,29.332 C79,31.17 80.496,32.666 82.334,32.666 C84.172,32.666 85.668,31.17 85.668,29.332 C85.668,27.495 84.172,26 82.334,26 M82.334,36.666 C78.289,36.666 75,33.376 75,29.332 C75,25.289 78.289,22 82.334,22 C86.377,22 89.668,25.289 89.668,29.332 C89.668,33.376 86.377,36.666 82.334,36.666" id="Fill-15" fill="#00BC9B"></path>
                    <path d="M50,7.332 C50,10.279 47.611,12.666 44.666,12.666 C41.72,12.666 39.334,10.279 39.334,7.332 C39.334,4.387 41.72,2 44.666,2 C47.611,2 50,4.387 50,7.332" id="Fill-17" fill="#FFFFFF"></path>
                    <path d="M44.666,4 C42.828,4 41.334,5.495 41.334,7.332 C41.334,9.17 42.828,10.666 44.666,10.666 C46.504,10.666 48,9.17 48,7.332 C48,5.495 46.504,4 44.666,4 M44.666,14.666 C40.622,14.666 37.334,11.376 37.334,7.332 C37.334,3.289 40.622,0 44.666,0 C48.709,0 52,3.289 52,7.332 C52,11.376 48.709,14.666 44.666,14.666" id="Fill-19" fill="#282D33"></path>
                    <path d="M50,94.666 C50,97.611 47.611,100 44.666,100 C41.72,100 39.334,97.611 39.334,94.666 C39.334,91.72 41.72,89.332 44.666,89.332 C47.611,89.332 50,91.72 50,94.666" id="Fill-21" fill="#B7BEC0"></path>
                    <path d="M44.666,91.332 C42.828,91.332 41.334,92.828 41.334,94.666 C41.334,96.505 42.828,98 44.666,98 C46.504,98 48,96.505 48,94.666 C48,92.828 46.504,91.332 44.666,91.332 M44.666,102 C40.622,102 37.334,98.71 37.334,94.666 C37.334,90.622 40.622,87.332 44.666,87.332 C48.709,87.332 52,90.622 52,94.666 C52,98.71 48.709,102 44.666,102" id="Fill-23" fill="#B7BEC0"></path>
                    <path d="M12.668,73.332 C12.668,76.279 10.279,78.666 7.334,78.666 C4.388,78.666 2,76.279 2,73.332 C2,70.387 4.388,68 7.334,68 C10.279,68 12.668,70.387 12.668,73.332" id="Fill-25" fill="#FFFFFF"></path>
                    <path d="M7.334,70 C5.496,70 4,71.495 4,73.332 C4,75.17 5.496,76.666 7.334,76.666 C9.172,76.666 10.668,75.17 10.668,73.332 C10.668,71.495 9.172,70 7.334,70 M7.334,80.666 C3.289,80.666 0,77.376 0,73.332 C0,69.289 3.289,66 7.334,66 C11.377,66 14.668,69.289 14.668,73.332 C14.668,77.376 11.377,80.666 7.334,80.666" id="Fill-27" fill="#282D33"></path>
                    <path d="M87.668,73.332 C87.668,76.279 85.279,78.666 82.334,78.666 C79.388,78.666 77,76.279 77,73.332 C77,70.387 79.388,68 82.334,68 C85.279,68 87.668,70.387 87.668,73.332" id="Fill-29" fill="#FFFFFF"></path>
                    <path d="M82.334,70 C80.496,70 79,71.495 79,73.332 C79,75.17 80.496,76.666 82.334,76.666 C84.172,76.666 85.668,75.17 85.668,73.332 C85.668,71.495 84.172,70 82.334,70 M82.334,80.666 C78.289,80.666 75,77.376 75,73.332 C75,69.289 78.289,66 82.334,66 C86.377,66 89.668,69.289 89.668,73.332 C89.668,77.376 86.377,80.666 82.334,80.666" id="Fill-31" fill="#282D33"></path>
                    <path d="M44.835,72.5674 C32.94,72.5674 23.266,62.8924 23.266,51.0004 C23.266,39.1074 32.94,29.4314 44.835,29.4314 C56.727,29.4314 66.401,39.1074 66.401,51.0004 C66.401,62.8924 56.727,72.5674 44.835,72.5674" id="Fill-33" fill="#FFFFFF"></path>
                    <path d="M44.835,31.4316 C34.044,31.4316 25.266,40.2096 25.266,50.9996 C25.266,61.7896 34.044,70.5676 44.835,70.5676 C55.624,70.5676 64.401,61.7896 64.401,50.9996 C64.401,40.2096 55.624,31.4316 44.835,31.4316 M44.835,74.5676 C31.839,74.5676 21.266,63.9946 21.266,50.9996 C21.266,38.0046 31.839,27.4316 44.835,27.4316 C57.828,27.4316 68.401,38.0046 68.401,50.9996 C68.401,63.9946 57.828,74.5676 44.835,74.5676" id="Fill-35" fill="#282D33"></path>
                    <path d="M32.8731,59.3164 C31.1721,56.8944 30.2601,54.0254 30.2601,51.0004 C30.2601,42.9634 36.7981,36.4244 44.8351,36.4244 C52.8701,36.4244 59.4071,42.9634 59.4071,51.0004 C59.4071,54.0254 58.4961,56.8934 56.7951,59.3154 C55.6501,56.4344 52.8361,54.3914 49.5531,54.3914 L40.1171,54.3914 C36.8321,54.3914 34.0181,56.4344 32.8731,59.3164" id="Fill-37" fill="#00BC9B"></path>
                    <path d="M51.125,48.9033 C51.125,52.3773 48.309,55.1933 44.835,55.1933 C41.361,55.1933 38.545,52.3773 38.545,48.9033 C38.545,45.4293 41.361,42.6133 44.835,42.6133 C48.309,42.6133 51.125,45.4293 51.125,48.9033" id="Fill-39" fill="#FFFFFF"></path>
                    <path d="M44.835,44.6133 C42.47,44.6133 40.545,46.5383 40.545,48.9033 C40.545,51.2693 42.47,53.1933 44.835,53.1933 C47.2,53.1933 49.125,51.2693 49.125,48.9033 C49.125,46.5383 47.2,44.6133 44.835,44.6133 M44.835,57.1933 C40.264,57.1933 36.545,53.4743 36.545,48.9033 C36.545,44.3323 40.264,40.6133 44.835,40.6133 C49.405,40.6133 53.125,44.3323 53.125,48.9033 C53.125,53.4743 49.405,57.1933 44.835,57.1933" id="Fill-41" fill="#282D33"></path>
                    <path d="M57.8418,69.4385 L53.8418,69.4385 L53.8418,62.1815 C53.8418,59.8165 51.9178,57.8915 49.5528,57.8915 L40.1168,57.8915 C37.7518,57.8915 35.8268,59.8165 35.8268,62.1815 L35.8268,69.4385 L31.8268,69.4385 L31.8268,62.1815 C31.8268,57.6105 35.5448,53.8915 40.1168,53.8915 L49.5528,53.8915 C54.1218,53.8915 57.8418,57.6105 57.8418,62.1815 L57.8418,69.4385 Z" id="Fill-43" fill="#282D33"></path>
                </g>
            </g>
        </g>
    </g>
</svg>